<svg xmlns="http://www.w3.org/2000/svg" viewBox="0 0 320 220" role="img">
  <defs>
    <linearGradient id="film" x1="0" x2="1" y1="0" y2="1"><stop stop-color="#d9eee7" stop-opacity=".94"/><stop offset="1" stop-color="#83b7aa" stop-opacity=".52"/></linearGradient>
    <linearGradient id="roll" x1="0" x2="1"><stop stop-color="#c6ded4"/><stop offset=".52" stop-color="#f5faf4"/><stop offset="1" stop-color="#86aa9c"/></linearGradient>
    <filter id="shadow" x="-.3" y="-.3" width="1.6" height="1.8"><feDropShadow dx="0" dy="8" stdDeviation="7" flood-color="#293c32" flood-opacity=".15"/></filter>
  </defs>
  <rect width="320" height="220" rx="18" fill="#f0f4ec"/>
  <ellipse cx="162" cy="186" rx="95" ry="12" fill="#557462" opacity=".12"/>
  <g filter="url(#shadow)">
    <path d="M108 61 230 47l18 83-124 16z" fill="url(#film)" stroke="#67988a" stroke-opacity=".5"/>
    <g fill="#fff" opacity=".88"><circle cx="142" cy="76" r="2.4"/><circle cx="171" cy="72" r="2.4"/><circle cx="200" cy="69" r="2.4"/><circle cx="148" cy="98" r="2.4"/><circle cx="178" cy="94" r="2.4"/><circle cx="207" cy="91" r="2.4"/><circle cx="154" cy="120" r="2.4"/><circle cx="185" cy="116" r="2.4"/><circle cx="215" cy="112" r="2.4"/></g>
    <rect x="65" y="112" width="151" height="54" rx="26" fill="url(#roll)" stroke="#76998b"/>
    <ellipse cx="85" cy="139" rx="20" ry="27" fill="#dce8df" stroke="#76998b"/>
    <ellipse cx="85" cy="139" rx="8" ry="13" fill="#829f90"/>
    <path d="M85 126v26" stroke="#eaf2ec" stroke-width="3" opacity=".75"/>
    <path d="M115 117v43M124 116v44" stroke="#fff" stroke-opacity=".5"/>
  </g>
  <text x="229" y="181" text-anchor="end" fill="#527160" font-family="Arial,sans-serif" font-size="9" font-weight="700" letter-spacing="1.2">MICROPERFORATED FILM</text>
</svg>
